# xmcd
#
# Track frame offsets:
# 183
# 12598
# 26045
# 38185
# 51465
# 64123
# 73625
# 85808
# 98505
# 113000
# 123998
# 135910
# 150835
# 159290
# 173053
# 184448
# 198388
#
# Disc length: 2781 seconds
#
#
# Revision: 0
# Processed by: cddbd v1.4PL0 Copyright (c) Steve Scherf et al.
# Submitted via: FreeRIP 2.30 
#
DISCID=d90adb11
DTITLE=Charlie Pride - Gold Collection [CD2]
DYEAR=1990
DGENRE=Country
TTITLE0=THE SNAKES CRAWL AT NIGHT
TTITLE1=ALL HIS CHILDREN
TTITLE2=SHUTTERS AND BOARDS
TTITLE3=KISS AN ANGEL GOOD MORNING
TTITLE4=THE BANKS OF THE OHIO
TTITLE5=DON'T FIGHT THE FEELINGS OF LOVE
TTITLE6=LOVESICK BLUES
TTITLE7=CRYSTAL CHANDELIER
TTITLE8=KAW LIJA
TTITLE9=WINGS OF A DOVE
TTITLE10=FOLSOM PRISON BLUES
TTITLE11=MILLER'S CAVE
TTITLE12=PIROQUE JOE
TTITLE13=ALL I HAVE TO OFFER YOU IS ME
TTITLE14=SUNSHINY DAY
TTITLE15=DETROIT CITY
TTITLE16=THE LAST THING ON MY MIND
EXTD=
EXTT0=
EXTT1=
EXTT2=
EXTT3=
EXTT4=
EXTT5=
EXTT6=
EXTT7=
EXTT8=
EXTT9=
EXTT10=
EXTT11=
EXTT12=
EXTT13=
EXTT14=
EXTT15=
EXTT16=
PLAYORDER=
